ffmpeg started on 2026-01-13 at 10:14:13
Report written to "D:\Convert\FFMetrics\reports\psnr_report-6.txt"
Log level: 32
Command line:
ffmpeg -hide_banner -nostdin -r 24000/1001 -i "F:\\Convert\\files\\[DC] Make Heroine ga Oosugiru - 07_Telegram_HEVC(113).mkv" -r 24000/1001 -i "F:\\Convert\\files\\[DC] Make Heroine ga Oosugiru - 07_Telegram.mp4" -lavfi "[0:v]settb=AVTB,setpts=PTS-STARTPTS,format=pix_fmts=yuv420p10le,fps=24000/1001,scale=1920:1080:flags=lanczos:param0=3:out_range=limited:out_color_matrix=bt709:out_chroma_loc=left,setsar=1/1,setdar=(1920/1080)*(1/1),colorspace=format=yuv420p10:range=tv:primaries=bt709:trc=bt709:space=bt709:fast=0[main];[1:v]settb=AVTB,setpts=PTS-STARTPTS,format=pix_fmts=yuv420p,fps=24000/1001,scale=1920:1080:flags=lanczos:param0=3:out_range=limited:out_color_matrix=bt709:out_chroma_loc=left,setsar=1.000,setdar=1.778,colorspace=format=yuv420p:range=tv:primaries=bt709:trc=bt709:space=bt709:fast=0[ref];[main][ref]psnr=eof_action=endall:stats_file='D\\:/Convert/FFMetrics/logs/psnr_logfile-6.txt'" -f null -
Input #0, matroska,webm, from 'F:\Convert\files\[DC] Make Heroine ga Oosugiru - 07_Telegram_HEVC(113).mkv':
  Metadata:
    COMPATIBLE_BRANDS: isomiso2avc1mp41
    MAJOR_BRAND     : isom
    MINOR_VERSION   : 512
    ENCODER         : Lavf61.7.100
  Duration: 00:24:06.79, start: -0.021000, bitrate: 1012 kb/s
  Stream #0:0: Video: hevc (Main 10), yuv420p10le(tv, bt709, progressive), 1920x1080 [SAR 1:1 DAR 16:9], 23.98 fps, 23.98 tbr, 1k tbn (default)
      Metadata:
        HANDLER_NAME    : VideoHandler
        VENDOR_ID       : [0][0][0][0]
        ENCODER         : Lavc61.19.100 libx265
        BPS             : 815874
        DURATION        : 00:24:06.569708333
        NUMBER_OF_FRAMES: 34683
        NUMBER_OF_BYTES : 147527397
        _STATISTICS_WRITING_APP: mkvpropedit v94.0 ('Initiate') 64-bit
        _STATISTICS_WRITING_DATE_UTC: 2026-01-12 14:21:07
        _STATISTICS_TAGS: BPS DURATION NUMBER_OF_FRAMES NUMBER_OF_BYTES
  Stream #0:1: Audio: aac (LC), 48000 Hz, stereo, fltp (default)
      Metadata:
        HANDLER_NAME    : SoundHandler
        VENDOR_ID       : [0][0][0][0]
        ENCODER         : Lavc61.19.100 aac
        BPS             : 193194
        DURATION        : 00:24:06.784000000
        NUMBER_OF_FRAMES: 67819
        NUMBER_OF_BYTES : 34938755
        _STATISTICS_WRITING_APP: mkvpropedit v94.0 ('Initiate') 64-bit
        _STATISTICS_WRITING_DATE_UTC: 2026-01-12 14:21:07
        _STATISTICS_TAGS: BPS DURATION NUMBER_OF_FRAMES NUMBER_OF_BYTES
Input #1, mov,mp4,m4a,3gp,3g2,mj2, from 'F:\Convert\files\[DC] Make Heroine ga Oosugiru - 07_Telegram.mp4':
  Metadata:
    major_brand     : isom
    minor_version   : 512
    compatible_brands: isomiso2avc1mp41
    encoder         : Lavf60.16.100
  Duration: 00:24:06.74, start: 0.000000, bitrate: 3764 kb/s
  Stream #1:0[0x1](und): Video: h264 (High) (avc1 / 0x31637661), yuv420p(tv, bt709, progressive), 1920x1080 [SAR 1:1 DAR 16:9], 3616 kb/s, 23.98 fps, 23.98 tbr, 24k tbn (default)
      Metadata:
        handler_name    : VideoHandler
        vendor_id       : [0][0][0][0]
        encoder         : Lavc60.31.102 h264_qsv
  Stream #1:1[0x2](und): Audio: aac (HE-AACv2) (mp4a / 0x6134706D), 48000 Hz, stereo, fltp, 144 kb/s (default)
      Metadata:
        handler_name    : SoundHandler
        vendor_id       : [0][0][0][0]
Stream mapping:
  Stream #0:0 (hevc) -> settb:default
  Stream #1:0 (h264) -> settb:default
  psnr:default -> Stream #0:0 (wrapped_avframe)
  Stream #0:1 -> #0:1 (aac (native) -> pcm_s16le (native))
Output #0, null, to 'pipe:':
  Metadata:
    COMPATIBLE_BRANDS: isomiso2avc1mp41
    MAJOR_BRAND     : isom
    MINOR_VERSION   : 512
    encoder         : Lavf61.7.100
  Stream #0:0: Video: wrapped_avframe, yuv420p10le(tv, bt709, progressive), 1920x1080 [SAR 1:1 DAR 16:9], q=2-31, 200 kb/s, 23.98 fps, 23.98 tbn
      Metadata:
        encoder         : Lavc61.19.100 wrapped_avframe
  Stream #0:1: Audio: pcm_s16le, 48000 Hz, stereo, s16, 1536 kb/s (default)
      Metadata:
        HANDLER_NAME    : SoundHandler
        VENDOR_ID       : [0][0][0][0]
        _STATISTICS_TAGS: BPS DURATION NUMBER_OF_FRAMES NUMBER_OF_BYTES
        BPS             : 193194
        DURATION        : 00:24:06.784000000
        NUMBER_OF_FRAMES: 67819
        NUMBER_OF_BYTES : 34938755
        _STATISTICS_WRITING_APP: mkvpropedit v94.0 ('Initiate') 64-bit
        _STATISTICS_WRITING_DATE_UTC: 2026-01-12 14:21:07
        encoder         : Lavc61.19.100 pcm_s16le
frame=  122 fps=0.0 q=-0.0 size=N/A time=00:00:05.08 bitrate=N/A speed=9.92x    frame=  294 fps=287 q=-0.0 size=N/A time=00:00:12.26 bitrate=N/A speed=  12x    frame=  476 fps=310 q=-0.0 size=N/A time=00:00:19.85 bitrate=N/A speed=12.9x    frame=  646 fps=314 q=-0.0 size=N/A time=00:00:26.94 bitrate=N/A speed=13.1x    frame=  815 fps=318 q=-0.0 size=N/A time=00:00:33.99 bitrate=N/A speed=13.2x    frame=  958 fps=310 q=-0.0 size=N/A time=00:00:39.95 bitrate=N/A speed=12.9x    frame= 1104 fps=306 q=-0.0 size=N/A time=00:00:46.04 bitrate=N/A speed=12.8x    frame= 1259 fps=306 q=-0.0 size=N/A time=00:00:52.51 bitrate=N/A speed=12.8x    frame= 1416 fps=306 q=-0.0 size=N/A time=00:00:59.05 bitrate=N/A speed=12.8x    frame= 1552 fps=301 q=-0.0 size=N/A time=00:01:04.73 bitrate=N/A speed=12.6x    frame= 1708 fps=301 q=-0.0 size=N/A time=00:01:11.23 bitrate=N/A speed=12.5x    frame= 1872 fps=302 q=-0.0 size=N/A time=00:01:18.07 bitrate=N/A speed=12.6x    frame= 2032 fps=303 q=-0.0 size=N/A time=00:01:24.75 bitrate=N/A speed=12.6x    frame= 2127 fps=294 q=-0.0 size=N/A time=00:01:28.71 bitrate=N/A speed=12.3x    frame= 2270 fps=293 q=-0.0 size=N/A time=00:01:34.67 bitrate=N/A speed=12.2x    frame= 2411 fps=292 q=-0.0 size=N/A time=00:01:40.55 bitrate=N/A speed=12.2x    frame= 2525 fps=288 q=-0.0 size=N/A time=00:01:45.31 bitrate=N/A speed=  12x    frame= 2663 fps=286 q=-0.0 size=N/A time=00:01:51.06 bitrate=N/A speed=11.9x    frame= 2840 fps=290 q=-0.0 size=N/A time=00:01:58.45 bitrate=N/A speed=12.1x    frame= 3014 fps=292 q=-0.0 size=N/A time=00:02:05.70 bitrate=N/A speed=12.2x    frame= 3193 fps=294 q=-0.0 size=N/A time=00:02:13.17 bitrate=N/A speed=12.3x    frame= 3388 fps=298 q=-0.0 size=N/A time=00:02:21.30 bitrate=N/A speed=12.4x    frame= 3579 fps=301 q=-0.0 size=N/A time=00:02:29.27 bitrate=N/A speed=12.6x    frame= 3769 fps=304 q=-0.0 size=N/A time=00:02:37.19 bitrate=N/A speed=12.7x    frame= 3969 fps=307 q=-0.0 size=N/A time=00:02:45.54 bitrate=N/A speed=12.8x    frame= 4158 fps=310 q=-0.0 size=N/A time=00:02:53.42 bitrate=N/A speed=12.9x    frame= 4353 fps=312 q=-0.0 size=N/A time=00:03:01.55 bitrate=N/A speed=  13x    frame= 4520 fps=313 q=-0.0 size=N/A time=00:03:08.52 bitrate=N/A speed=  13x    frame= 4694 fps=314 q=-0.0 size=N/A time=00:03:15.77 bitrate=N/A speed=13.1x    frame= 4859 fps=313 q=-0.0 size=N/A time=00:03:22.66 bitrate=N/A speed=13.1x    frame= 5016 fps=313 q=-0.0 size=N/A time=00:03:29.20 bitrate=N/A speed=13.1x    frame= 5202 fps=315 q=-0.0 size=N/A time=00:03:36.96 bitrate=N/A speed=13.1x    frame= 5390 fps=316 q=-0.0 size=N/A time=00:03:44.80 bitrate=N/A speed=13.2x    frame= 5586 fps=318 q=-0.0 size=N/A time=00:03:52.98 bitrate=N/A speed=13.3x    frame= 5771 fps=319 q=-0.0 size=N/A time=00:04:00.69 bitrate=N/A speed=13.3x    frame= 5978 fps=322 q=-0.0 size=N/A time=00:04:09.33 bitrate=N/A speed=13.4x    frame= 6153 fps=322 q=-0.0 size=N/A time=00:04:16.63 bitrate=N/A speed=13.4x    frame= 6314 fps=322 q=-0.0 size=N/A time=00:04:23.34 bitrate=N/A speed=13.4x    frame= 6461 fps=321 q=-0.0 size=N/A time=00:04:29.47 bitrate=N/A speed=13.4x    frame= 6626 fps=321 q=-0.0 size=N/A time=00:04:36.35 bitrate=N/A speed=13.4x    frame= 6791 fps=321 q=-0.0 size=N/A time=00:04:43.24 bitrate=N/A speed=13.4x    frame= 6962 fps=321 q=-0.0 size=N/A time=00:04:50.37 bitrate=N/A speed=13.4x    frame= 7143 fps=322 q=-0.0 size=N/A time=00:04:57.92 bitrate=N/A speed=13.4x    frame= 7300 fps=321 q=-0.0 size=N/A time=00:05:04.47 bitrate=N/A speed=13.4x    frame= 7448 fps=321 q=-0.0 size=N/A time=00:05:10.64 bitrate=N/A speed=13.4x    frame= 7618 fps=321 q=-0.0 size=N/A time=00:05:17.73 bitrate=N/A speed=13.4x    frame= 7786 fps=321 q=-0.0 size=N/A time=00:05:24.74 bitrate=N/A speed=13.4x    frame= 7942 fps=321 q=-0.0 size=N/A time=00:05:31.24 bitrate=N/A speed=13.4x    frame= 8111 fps=321 q=-0.0 size=N/A time=00:05:38.29 bitrate=N/A speed=13.4x    frame= 8279 fps=321 q=-0.0 size=N/A time=00:05:45.30 bitrate=N/A speed=13.4x    frame= 8448 fps=321 q=-0.0 size=N/A time=00:05:52.35 bitrate=N/A speed=13.4x    frame= 8594 fps=320 q=-0.0 size=N/A time=00:05:58.44 bitrate=N/A speed=13.4x    frame= 8750 fps=320 q=-0.0 size=N/A time=00:06:04.94 bitrate=N/A speed=13.3x    frame= 8937 fps=321 q=-0.0 size=N/A time=00:06:12.74 bitrate=N/A speed=13.4x    frame= 9132 fps=322 q=-0.0 size=N/A time=00:06:20.88 bitrate=N/A speed=13.4x    frame= 9328 fps=323 q=-0.0 size=N/A time=00:06:29.05 bitrate=N/A speed=13.5x    frame= 9525 fps=324 q=-0.0 size=N/A time=00:06:37.27 bitrate=N/A speed=13.5x    frame= 9715 fps=325 q=-0.0 size=N/A time=00:06:45.19 bitrate=N/A speed=13.5x    frame= 9882 fps=325 q=-0.0 size=N/A time=00:06:52.16 bitrate=N/A speed=13.5x    frame=10056 fps=325 q=-0.0 size=N/A time=00:06:59.41 bitrate=N/A speed=13.5x    frame=10253 fps=326 q=-0.0 size=N/A time=00:07:07.63 bitrate=N/A speed=13.6x    frame=10442 fps=326 q=-0.0 size=N/A time=00:07:15.51 bitrate=N/A speed=13.6x    frame=10633 fps=327 q=-0.0 size=N/A time=00:07:23.48 bitrate=N/A speed=13.6x    frame=10804 fps=327 q=-0.0 size=N/A time=00:07:30.61 bitrate=N/A speed=13.6x    frame=10992 fps=328 q=-0.0 size=N/A time=00:07:38.45 bitrate=N/A speed=13.7x    frame=11156 fps=328 q=-0.0 size=N/A time=00:07:45.29 bitrate=N/A speed=13.7x    frame=11337 fps=328 q=-0.0 size=N/A time=00:07:52.84 bitrate=N/A speed=13.7x    frame=11513 fps=328 q=-0.0 size=N/A time=00:08:00.18 bitrate=N/A speed=13.7x    frame=11712 fps=329 q=-0.0 size=N/A time=00:08:08.48 bitrate=N/A speed=13.7x    frame=11888 fps=329 q=-0.0 size=N/A time=00:08:15.82 bitrate=N/A speed=13.7x    frame=12048 fps=329 q=-0.0 size=N/A time=00:08:22.50 bitrate=N/A speed=13.7x    frame=12208 fps=329 q=-0.0 size=N/A time=00:08:29.17 bitrate=N/A speed=13.7x    frame=12391 fps=329 q=-0.0 size=N/A time=00:08:36.80 bitrate=N/A speed=13.7x    frame=12580 fps=329 q=-0.0 size=N/A time=00:08:44.69 bitrate=N/A speed=13.7x    frame=12759 fps=330 q=-0.0 size=N/A time=00:08:52.15 bitrate=N/A speed=13.8x    frame=12960 fps=330 q=-0.0 size=N/A time=00:09:00.54 bitrate=N/A speed=13.8x    frame=13156 fps=331 q=-0.0 size=N/A time=00:09:08.71 bitrate=N/A speed=13.8x    frame=13342 fps=331 q=-0.0 size=N/A time=00:09:16.47 bitrate=N/A speed=13.8x    frame=13507 fps=331 q=-0.0 size=N/A time=00:09:23.35 bitrate=N/A speed=13.8x    frame=13689 fps=331 q=-0.0 size=N/A time=00:09:30.94 bitrate=N/A speed=13.8x    frame=13871 fps=332 q=-0.0 size=N/A time=00:09:38.53 bitrate=N/A speed=13.8x    frame=14060 fps=332 q=-0.0 size=N/A time=00:09:46.41 bitrate=N/A speed=13.9x    frame=14230 fps=332 q=-0.0 size=N/A time=00:09:53.50 bitrate=N/A speed=13.9x    frame=14433 fps=333 q=-0.0 size=N/A time=00:10:01.97 bitrate=N/A speed=13.9x    frame=14618 fps=333 q=-0.0 size=N/A time=00:10:09.69 bitrate=N/A speed=13.9x    frame=14808 fps=334 q=-0.0 size=N/A time=00:10:17.61 bitrate=N/A speed=13.9x    frame=14997 fps=334 q=-0.0 size=N/A time=00:10:25.49 bitrate=N/A speed=13.9x    frame=15144 fps=333 q=-0.0 size=N/A time=00:10:31.63 bitrate=N/A speed=13.9x    frame=15329 fps=334 q=-0.0 size=N/A time=00:10:39.34 bitrate=N/A speed=13.9x    frame=15525 fps=334 q=-0.0 size=N/A time=00:10:47.52 bitrate=N/A speed=13.9x    frame=15706 fps=334 q=-0.0 size=N/A time=00:10:55.07 bitrate=N/A speed=13.9x    frame=15901 fps=335 q=-0.0 size=N/A time=00:11:03.20 bitrate=N/A speed=  14x    frame=16064 fps=335 q=-0.0 size=N/A time=00:11:10.00 bitrate=N/A speed=  14x    frame=16266 fps=335 q=-0.0 size=N/A time=00:11:18.42 bitrate=N/A speed=  14x    frame=16449 fps=336 q=-0.0 size=N/A time=00:11:26.06 bitrate=N/A speed=  14x    frame=16628 fps=336 q=-0.0 size=N/A time=00:11:33.52 bitrate=N/A speed=  14x    frame=16820 fps=336 q=-0.0 size=N/A time=00:11:41.53 bitrate=N/A speed=  14x    frame=17020 fps=336 q=-0.0 size=N/A time=00:11:49.87 bitrate=N/A speed=  14x    frame=17204 fps=337 q=-0.0 size=N/A time=00:11:57.55 bitrate=N/A speed=  14x    frame=17397 fps=337 q=-0.0 size=N/A time=00:12:05.59 bitrate=N/A speed=14.1x    frame=17576 fps=337 q=-0.0 size=N/A time=00:12:13.06 bitrate=N/A speed=14.1x    frame=17759 fps=337 q=-0.0 size=N/A time=00:12:20.69 bitrate=N/A speed=14.1x    frame=17946 fps=338 q=-0.0 size=N/A time=00:12:28.49 bitrate=N/A speed=14.1x    frame=18145 fps=338 q=-0.0 size=N/A time=00:12:36.79 bitrate=N/A speed=14.1x    frame=18321 fps=338 q=-0.0 size=N/A time=00:12:44.13 bitrate=N/A speed=14.1x    frame=18500 fps=338 q=-0.0 size=N/A time=00:12:51.60 bitrate=N/A speed=14.1x    frame=18686 fps=338 q=-0.0 size=N/A time=00:12:59.36 bitrate=N/A speed=14.1x    frame=18881 fps=339 q=-0.0 size=N/A time=00:13:07.49 bitrate=N/A speed=14.1x    frame=19073 fps=339 q=-0.0 size=N/A time=00:13:15.50 bitrate=N/A speed=14.1x    frame=19267 fps=339 q=-0.0 size=N/A time=00:13:23.59 bitrate=N/A speed=14.2x    frame=19470 fps=340 q=-0.0 size=N/A time=00:13:32.06 bitrate=N/A speed=14.2x    frame=19661 fps=340 q=-0.0 size=N/A time=00:13:40.02 bitrate=N/A speed=14.2x    frame=19861 fps=340 q=-0.0 size=N/A time=00:13:48.36 bitrate=N/A speed=14.2x    frame=20057 fps=341 q=-0.0 size=N/A time=00:13:56.54 bitrate=N/A speed=14.2x    frame=20259 fps=341 q=-0.0 size=N/A time=00:14:04.96 bitrate=N/A speed=14.2x    frame=20440 fps=341 q=-0.0 size=N/A time=00:14:12.51 bitrate=N/A speed=14.2x    frame=20622 fps=341 q=-0.0 size=N/A time=00:14:20.10 bitrate=N/A speed=14.2x    frame=20809 fps=342 q=-0.0 size=N/A time=00:14:27.90 bitrate=N/A speed=14.2x    frame=21018 fps=342 q=-0.0 size=N/A time=00:14:36.62 bitrate=N/A speed=14.3x    frame=21190 fps=342 q=-0.0 size=N/A time=00:14:43.79 bitrate=N/A speed=14.3x    frame=21386 fps=342 q=-0.0 size=N/A time=00:14:51.97 bitrate=N/A speed=14.3x    frame=21579 fps=343 q=-0.0 size=N/A time=00:15:00.02 bitrate=N/A speed=14.3x    frame=21757 fps=343 q=-0.0 size=N/A time=00:15:07.44 bitrate=N/A speed=14.3x    frame=21943 fps=343 q=-0.0 size=N/A time=00:15:15.20 bitrate=N/A speed=14.3x    frame=22140 fps=343 q=-0.0 size=N/A time=00:15:23.42 bitrate=N/A speed=14.3x    frame=22329 fps=343 q=-0.0 size=N/A time=00:15:31.30 bitrate=N/A speed=14.3x    frame=22532 fps=344 q=-0.0 size=N/A time=00:15:39.77 bitrate=N/A speed=14.3x    frame=22720 fps=344 q=-0.0 size=N/A time=00:15:47.61 bitrate=N/A speed=14.3x    frame=22913 fps=344 q=-0.0 size=N/A time=00:15:55.66 bitrate=N/A speed=14.4x    frame=23106 fps=344 q=-0.0 size=N/A time=00:16:03.71 bitrate=N/A speed=14.4x    frame=23305 fps=345 q=-0.0 size=N/A time=00:16:12.01 bitrate=N/A speed=14.4x    frame=23494 fps=345 q=-0.0 size=N/A time=00:16:19.89 bitrate=N/A speed=14.4x    frame=23689 fps=345 q=-0.0 size=N/A time=00:16:28.02 bitrate=N/A speed=14.4x    frame=23860 fps=345 q=-0.0 size=N/A time=00:16:35.16 bitrate=N/A speed=14.4x    frame=24054 fps=345 q=-0.0 size=N/A time=00:16:43.25 bitrate=N/A speed=14.4x    frame=24242 fps=345 q=-0.0 size=N/A time=00:16:51.09 bitrate=N/A speed=14.4x    frame=24442 fps=346 q=-0.0 size=N/A time=00:16:59.43 bitrate=N/A speed=14.4x    frame=24631 fps=346 q=-0.0 size=N/A time=00:17:07.31 bitrate=N/A speed=14.4x    frame=24827 fps=346 q=-0.0 size=N/A time=00:17:15.49 bitrate=N/A speed=14.4x    frame=25024 fps=346 q=-0.0 size=N/A time=00:17:23.70 bitrate=N/A speed=14.4x    frame=25225 fps=347 q=-0.0 size=N/A time=00:17:32.09 bitrate=N/A speed=14.5x    frame=25420 fps=347 q=-0.0 size=N/A time=00:17:40.22 bitrate=N/A speed=14.5x    frame=25616 fps=347 q=-0.0 size=N/A time=00:17:48.40 bitrate=N/A speed=14.5x    frame=25814 fps=347 q=-0.0 size=N/A time=00:17:56.65 bitrate=N/A speed=14.5x    frame=26000 fps=347 q=-0.0 size=N/A time=00:18:04.41 bitrate=N/A speed=14.5x    frame=26196 fps=348 q=-0.0 size=N/A time=00:18:12.59 bitrate=N/A speed=14.5x    frame=26367 fps=348 q=-0.0 size=N/A time=00:18:19.72 bitrate=N/A speed=14.5x    frame=26573 fps=348 q=-0.0 size=N/A time=00:18:28.31 bitrate=N/A speed=14.5x    frame=26758 fps=348 q=-0.0 size=N/A time=00:18:36.03 bitrate=N/A speed=14.5x    frame=26939 fps=348 q=-0.0 size=N/A time=00:18:43.58 bitrate=N/A speed=14.5x    frame=27104 fps=348 q=-0.0 size=N/A time=00:18:50.46 bitrate=N/A speed=14.5x    frame=27289 fps=348 q=-0.0 size=N/A time=00:18:58.17 bitrate=N/A speed=14.5x    frame=27463 fps=348 q=-0.0 size=N/A time=00:19:05.43 bitrate=N/A speed=14.5x    frame=27667 fps=348 q=-0.0 size=N/A time=00:19:13.94 bitrate=N/A speed=14.5x    frame=27857 fps=348 q=-0.0 size=N/A time=00:19:21.86 bitrate=N/A speed=14.5x    frame=28044 fps=348 q=-0.0 size=N/A time=00:19:29.66 bitrate=N/A speed=14.5x    frame=28234 fps=348 q=-0.0 size=N/A time=00:19:37.59 bitrate=N/A speed=14.5x    frame=28426 fps=349 q=-0.0 size=N/A time=00:19:45.60 bitrate=N/A speed=14.5x    frame=28620 fps=349 q=-0.0 size=N/A time=00:19:53.69 bitrate=N/A speed=14.5x    frame=28801 fps=349 q=-0.0 size=N/A time=00:20:01.24 bitrate=N/A speed=14.5x    frame=28945 fps=348 q=-0.0 size=N/A time=00:20:07.24 bitrate=N/A speed=14.5x    frame=29127 fps=348 q=-0.0 size=N/A time=00:20:14.83 bitrate=N/A speed=14.5x    frame=29311 fps=348 q=-0.0 size=N/A time=00:20:22.51 bitrate=N/A speed=14.5x    frame=29482 fps=348 q=-0.0 size=N/A time=00:20:29.64 bitrate=N/A speed=14.5x    frame=29666 fps=348 q=-0.0 size=N/A time=00:20:37.31 bitrate=N/A speed=14.5x    frame=29835 fps=348 q=-0.0 size=N/A time=00:20:44.36 bitrate=N/A speed=14.5x    frame=29998 fps=348 q=-0.0 size=N/A time=00:20:51.16 bitrate=N/A speed=14.5x    frame=30159 fps=348 q=-0.0 size=N/A time=00:20:57.88 bitrate=N/A speed=14.5x    frame=30317 fps=348 q=-0.0 size=N/A time=00:21:04.47 bitrate=N/A speed=14.5x    frame=30510 fps=348 q=-0.0 size=N/A time=00:21:12.52 bitrate=N/A speed=14.5x    frame=30697 fps=348 q=-0.0 size=N/A time=00:21:20.32 bitrate=N/A speed=14.5x    frame=30902 fps=348 q=-0.0 size=N/A time=00:21:28.87 bitrate=N/A speed=14.5x    frame=31089 fps=348 q=-0.0 size=N/A time=00:21:36.67 bitrate=N/A speed=14.5x    frame=31280 fps=348 q=-0.0 size=N/A time=00:21:44.63 bitrate=N/A speed=14.5x    frame=31464 fps=348 q=-0.0 size=N/A time=00:21:52.31 bitrate=N/A speed=14.5x    frame=31647 fps=348 q=-0.0 size=N/A time=00:21:59.94 bitrate=N/A speed=14.5x    frame=31831 fps=348 q=-0.0 size=N/A time=00:22:07.61 bitrate=N/A speed=14.5x    frame=32004 fps=348 q=-0.0 size=N/A time=00:22:14.83 bitrate=N/A speed=14.5x    frame=32198 fps=349 q=-0.0 size=N/A time=00:22:22.92 bitrate=N/A speed=14.5x    frame=32395 fps=349 q=-0.0 size=N/A time=00:22:31.14 bitrate=N/A speed=14.5x    frame=32589 fps=349 q=-0.0 size=N/A time=00:22:39.23 bitrate=N/A speed=14.6x    frame=32716 fps=348 q=-0.0 size=N/A time=00:22:44.52 bitrate=N/A speed=14.5x    frame=32872 fps=348 q=-0.0 size=N/A time=00:22:51.03 bitrate=N/A speed=14.5x    frame=33046 fps=348 q=-0.0 size=N/A time=00:22:58.29 bitrate=N/A speed=14.5x    frame=33221 fps=348 q=-0.0 size=N/A time=00:23:05.59 bitrate=N/A speed=14.5x    frame=33401 fps=348 q=-0.0 size=N/A time=00:23:13.10 bitrate=N/A speed=14.5x    frame=33559 fps=348 q=-0.0 size=N/A time=00:23:19.68 bitrate=N/A speed=14.5x    frame=33710 fps=347 q=-0.0 size=N/A time=00:23:25.98 bitrate=N/A speed=14.5x    frame=33835 fps=347 q=-0.0 size=N/A time=00:23:31.20 bitrate=N/A speed=14.5x    frame=33974 fps=346 q=-0.0 size=N/A time=00:23:36.99 bitrate=N/A speed=14.5x    frame=34133 fps=346 q=-0.0 size=N/A time=00:23:43.63 bitrate=N/A speed=14.4x    frame=34289 fps=346 q=-0.0 size=N/A time=00:23:50.13 bitrate=N/A speed=14.4x    frame=34420 fps=346 q=-0.0 size=N/A time=00:23:55.60 bitrate=N/A speed=14.4x    frame=34598 fps=346 q=-0.0 size=N/A time=00:24:03.02 bitrate=N/A speed=14.4x    [Parsed_psnr_16 @ 00000240756ca800] PSNR y:49.170196 u:50.545791 v:50.613227 average:49.591082 min:37.947664 max:inf
[out#0/null @ 0000024068208a00] video:14903KiB audio:271276KiB subtitle:0KiB other streams:0KiB global headers:0KiB muxing overhead: unknown
frame=34683 fps=346 q=-0.0 Lsize=N/A time=00:24:06.57 bitrate=N/A speed=14.4x    
